<?xml version="1.0" standalone="no"?>
<!DOCTYPE svg PUBLIC "-//W3C//DTD SVG 20010904//EN"
 "http://www.w3.org/TR/2001/REC-SVG-20010904/DTD/svg10.dtd">
<svg version="1.0" xmlns="http://www.w3.org/2000/svg"
 width="1024.000000pt" height="1024.000000pt" viewBox="0 0 1024.000000 1024.000000"
 preserveAspectRatio="xMidYMid meet">

<g transform="translate(0.000000,1024.000000) scale(0.100000,-0.100000)"
fill="#000000" stroke="none">
<path d="M0 7109 l0 -3131 54 -60 c43 -47 62 -79 86 -147 81 -223 47 -442 -86
-544 l-54 -42 0 -1592 0 -1593 345 0 c302 0 344 2 339 15 -4 10 0 15 15 15 31
0 239 70 255 85 7 7 35 23 62 35 63 28 274 153 339 201 28 20 101 89 163 153
61 64 114 116 116 116 3 0 179 -232 249 -328 12 -17 67 -90 121 -162 l99 -130
648 0 647 0 33 53 c22 36 35 73 42 123 10 64 8 75 -11 115 -30 62 -28 84 7 98
15 7 33 22 39 34 12 27 52 158 52 174 0 21 34 24 291 23 197 0 258 3 262 13 6
17 -4 80 -15 94 -7 9 -18 5 -41 -17 l-32 -30 -245 0 c-226 0 -248 -2 -277 -20
-18 -11 -35 -15 -38 -10 -3 5 -5 57 -4 114 1 57 -2 109 -5 115 -12 19 -62 12
-97 -14 -115 -83 -215 -136 -309 -161 -48 -13 -104 -18 -210 -18 -173 -1 -244
14 -369 80 -46 25 -86 42 -89 40 -4 -5 86 -66 135 -93 33 -17 168 -63 187 -63
26 0 19 -13 -34 -65 -29 -29 -59 -71 -72 -102 -12 -29 -27 -53 -34 -53 -7 0
-27 28 -44 62 -18 35 -52 97 -74 138 -23 41 -50 93 -60 115 -31 66 -109 177
-131 185 -29 11 -51 -3 -130 -84 -68 -70 -119 -102 -225 -142 -86 -32 -540
-28 -695 6 -30 7 -48 5 -73 -7 -18 -9 -29 -20 -25 -24 8 -8 93 -23 201 -36 29
-3 51 -9 50 -13 -7 -18 -90 -100 -144 -143 -82 -64 -144 -89 -236 -95 -70 -4
-83 -2 -132 22 -139 68 -215 230 -235 502 -10 124 -4 277 9 269 4 -3 13 -25
19 -49 21 -85 112 -176 177 -176 55 0 156 53 230 121 54 50 63 56 41 27 -15
-21 -23 -38 -18 -38 22 0 10 -20 -14 -26 -14 -4 -24 -9 -21 -12 3 -3 1 -11 -5
-19 -8 -8 -8 -13 -1 -13 6 0 12 5 14 12 3 9 12 9 37 0 29 -10 36 -9 47 6 7 9
14 23 14 30 0 7 9 38 20 69 22 62 26 103 10 103 -5 0 -10 7 -10 15 0 8 -13 36
-30 62 -16 26 -30 54 -30 63 0 9 -3 20 -7 24 -16 16 -32 106 -33 181 0 150 68
303 174 388 70 55 140 85 254 109 85 18 119 19 272 14 96 -4 186 -7 200 -9
l25 -2 -3 85 c-5 131 -41 267 -94 360 -13 21 -20 41 -17 44 3 4 41 1 85 -6
106 -16 503 -15 629 1 55 7 134 21 175 31 41 10 94 21 116 25 23 3 103 37 178
75 102 50 145 67 169 64 18 -1 58 -5 89 -8 31 -4 232 -8 445 -11 213 -3 429
-10 478 -15 148 -16 317 -20 313 -8 -10 28 -898 481 -924 471 -8 -3 -14 1 -14
8 0 7 -3 10 -6 6 -4 -3 -20 1 -36 9 -16 8 -33 12 -38 9 -6 -3 -10 -1 -10 4 0
6 -6 11 -12 11 -18 0 -321 119 -333 131 -13 13 -62 11 -85 -3 -14 -9 -23 -10
-28 -3 -11 16 -50 17 -142 5 -89 -12 -300 -4 -300 11 0 10 66 29 103 29 15 0
27 4 27 9 0 12 -112 25 -139 16 -14 -4 -23 -1 -27 8 -3 9 -17 18 -31 21 -13 4
-47 22 -75 41 -28 19 -54 35 -58 35 -4 0 -37 17 -71 38 -35 21 -86 47 -112 58
-29 11 -54 29 -62 44 -7 14 -39 51 -72 81 -70 68 -100 103 -96 115 2 5 -12 18
-31 28 -19 10 -59 46 -89 80 -163 181 -236 267 -272 316 -22 30 -57 72 -78 94
-20 22 -59 71 -84 110 -62 92 -134 163 -208 205 -33 18 -83 57 -112 87 -48 50
-51 56 -42 86 4 18 11 59 14 91 4 31 11 57 16 57 5 0 38 -14 74 -31 77 -36
164 -114 234 -207 50 -68 57 -81 151 -275 78 -162 273 -441 410 -586 23 -25
49 -55 57 -68 9 -13 19 -23 24 -23 5 0 49 -32 97 -71 116 -94 269 -171 397
-198 126 -27 182 -33 355 -42 229 -11 238 -12 331 -3 l75 7 80 -48 c43 -27
142 -90 219 -140 214 -140 340 -222 456 -295 58 -37 118 -75 133 -85 14 -9 26
-15 26 -12 0 4 -46 39 -102 78 -57 40 -125 91 -153 114 -69 57 -172 135 -179
135 -7 0 -96 60 -114 78 -7 6 -33 26 -58 43 -24 16 -44 34 -44 40 0 5 -10 23
-22 39 l-21 29 43 48 c24 26 46 51 50 56 3 4 20 1 37 -8 73 -36 218 -45 329
-19 81 18 336 144 374 184 3 3 25 21 50 40 98 75 229 220 267 295 14 28 36 61
48 75 21 23 88 154 144 285 12 28 26 75 30 105 5 30 14 67 20 82 13 35 56 212
71 298 7 36 21 83 31 106 11 23 19 59 20 80 1 38 1 38 12 14 7 -14 21 -25 32
-26 11 -1 27 -3 35 -5 11 -3 14 3 12 26 -3 29 -3 29 11 10 14 -18 15 -17 21
25 3 25 7 107 8 183 3 154 8 143 -72 149 -29 3 -35 7 -34 26 0 12 1 121 2 242
l2 220 55 0 c66 0 62 -11 68 200 3 85 7 162 11 170 4 8 31 32 60 52 l54 38 61
-93 c34 -50 86 -127 117 -171 52 -73 55 -81 48 -120 -15 -92 -3 -86 -183 -86
-157 0 -159 0 -162 -22 -2 -13 -2 -115 1 -228 3 -113 7 -198 8 -190 2 10 7 7
17 -10 9 -15 14 -53 15 -96 0 -91 31 -211 74 -288 82 -149 83 -150 146 -208
107 -99 180 -174 177 -182 -2 -6 -13 -11 -24 -11 -12 0 -25 -3 -29 -7 -4 -5
-3 -8 3 -8 6 0 13 -9 16 -20 7 -27 22 -26 24 1 3 31 19 45 36 31 19 -16 40
-61 77 -162 33 -89 79 -185 139 -285 20 -33 42 -72 50 -87 8 -15 22 -36 31
-45 8 -10 31 -40 49 -68 47 -69 148 -164 199 -187 50 -23 97 -17 113 14 13 24
4 100 -17 140 -8 15 -14 39 -14 53 0 24 2 25 35 19 60 -11 99 3 149 53 25 25
46 51 46 58 0 7 7 19 17 26 9 8 26 36 39 62 l22 48 16 -23 c9 -12 16 -27 16
-33 0 -5 16 -30 35 -55 19 -25 49 -65 67 -88 46 -61 150 -148 193 -162 31 -10
39 -10 55 5 41 37 53 100 58 296 5 250 -22 432 -100 669 -56 172 -216 453
-316 556 -14 15 -12 28 27 197 78 337 253 673 454 868 75 74 157 136 157 120
0 -6 -4 -11 -9 -11 -4 0 -20 -11 -35 -25 -14 -13 -26 -22 -26 -19 0 2 -35 -31
-78 -73 -84 -85 -142 -155 -142 -172 0 -6 -4 -11 -9 -11 -10 0 -12 -4 -78
-132 -22 -43 -43 -74 -47 -71 -4 4 -4 0 -1 -8 3 -9 -1 -22 -10 -29 -8 -7 -15
-21 -15 -31 0 -10 -4 -20 -9 -24 -5 -3 -12 -19 -16 -35 -4 -17 -11 -30 -17
-30 -6 0 -8 -12 -4 -27 3 -16 3 -22 -1 -14 -6 15 -73 -178 -73 -210 0 -9 -6
-24 -13 -31 -8 -7 -12 -19 -9 -27 2 -7 0 -30 -7 -50 -22 -73 -21 -123 2 -169
25 -49 38 -49 51 -1 63 243 145 460 247 659 106 208 353 430 571 516 145 57
213 69 378 69 93 -1 173 -6 200 -13 115 -33 238 -95 307 -155 91 -80 223 -301
285 -477 104 -298 140 -646 104 -1000 -15 -143 -55 -361 -83 -447 -20 -62 -10
-80 20 -38 60 86 237 227 359 285 129 61 190 73 343 67 130 -5 169 -14 290
-64 53 -23 143 -83 179 -122 29 -30 22 -46 -7 -17 -12 13 -16 12 -26 -10 -15
-33 -14 -43 5 -79 10 -20 16 -55 15 -105 0 -88 -27 -253 -47 -292 -8 -15 -14
-32 -14 -37 0 -6 -9 -21 -20 -34 -12 -13 -28 -37 -38 -53 -47 -79 -59 -95 -89
-109 -18 -9 -33 -19 -33 -24 0 -8 -64 -41 -81 -41 -5 0 -22 -9 -37 -19 -15
-11 -48 -22 -74 -26 -27 -3 -48 -10 -48 -15 0 -6 -11 -5 -26 0 -37 15 -64 12
-64 -6 0 -9 -13 -1 -35 23 -19 21 -35 41 -35 44 0 15 -100 48 -162 54 -73 8
-84 0 -52 -36 9 -10 13 -23 9 -29 -3 -6 -79 -47 -168 -91 -89 -44 -167 -86
-173 -94 -6 -8 -31 -23 -55 -33 -24 -11 -50 -27 -58 -36 -7 -9 -19 -16 -27
-16 -15 0 -44 -38 -44 -57 0 -23 84 -16 106 8 66 73 364 169 526 169 71 0 148
-22 148 -42 0 -33 -50 -47 -191 -53 -209 -9 -230 -12 -289 -38 -30 -13 -61
-22 -67 -20 -7 3 -13 0 -13 -6 0 -6 -12 -17 -27 -24 -16 -6 -32 -17 -38 -24
-11 -14 -151 -37 -167 -27 -5 3 -16 -3 -24 -14 -8 -12 -31 -22 -60 -27 -26 -4
-65 -15 -88 -25 -135 -60 -184 -80 -194 -80 -7 0 -12 -4 -12 -10 0 -5 -10 -10
-23 -10 -13 0 -28 -5 -34 -11 -5 -5 -34 -16 -63 -24 -28 -7 -60 -21 -69 -29
-10 -9 -29 -16 -43 -16 -14 0 -31 -7 -38 -15 -7 -9 -21 -13 -31 -10 -11 4 -19
2 -19 -3 0 -6 -18 -13 -39 -17 -22 -3 -47 -13 -58 -20 -10 -8 -33 -15 -52 -15
-23 0 -41 -8 -57 -26 -13 -14 -28 -23 -33 -19 -5 3 -22 0 -38 -6 -26 -10 -64
-14 -268 -23 -44 -3 -122 -11 -172 -19 -58 -9 -109 -11 -135 -7 -23 5 -47 6
-53 4 -6 -3 -34 7 -63 21 -28 14 -54 25 -57 25 -3 0 -13 8 -23 17 -50 50 -159
114 -179 106 -11 -4 -14 -3 -9 5 4 7 -3 16 -18 23 -25 12 -86 88 -86 108 0 6
-4 11 -10 11 -5 0 -17 25 -25 55 -9 30 -21 57 -26 60 -5 4 -9 30 -9 59 0 47
-4 55 -37 88 -59 57 -266 154 -348 163 -11 1 -49 9 -85 18 -102 24 -301 47
-417 47 -93 0 -111 -3 -157 -26 -28 -14 -68 -44 -88 -67 -137 -150 -43 -362
194 -436 110 -35 244 -54 327 -48 97 8 256 41 350 73 40 14 79 23 85 21 7 -3
17 -20 22 -39 26 -84 254 -348 350 -404 92 -54 149 -94 149 -106 0 -7 55 -31
123 -53 133 -46 268 -109 377 -179 67 -42 72 -43 124 -36 61 8 190 -9 264 -35
140 -48 265 -148 322 -258 17 -31 34 -57 38 -57 5 0 43 24 86 54 114 79 184
115 243 126 28 6 53 8 56 6 2 -3 -10 -22 -26 -43 -17 -21 -54 -85 -83 -143
-55 -109 -66 -124 -84 -111 -11 9 -33 8 -83 -3 -22 -5 -38 -4 -48 5 -25 20
-28 2 -13 -79 l14 -77 270 3 c297 4 535 -8 666 -34 91 -18 113 -29 89 -44 -12
-8 -13 -13 -3 -30 12 -19 19 -110 8 -110 -10 0 -51 25 -82 52 -49 40 -160 100
-180 96 -13 -3 -6 -11 27 -33 25 -15 79 -63 120 -105 128 -130 190 -285 190
-475 0 -312 -167 -559 -445 -659 -107 -38 -175 -45 -500 -49 -284 -4 -302 -4
-339 15 -41 21 -44 21 -191 -2 -103 -16 -298 -14 -381 4 -38 8 -103 31 -144
50 -40 20 -76 33 -79 29 -3 -3 0 -8 8 -11 7 -2 23 -15 34 -28 11 -13 26 -24
32 -24 7 0 20 -9 30 -20 10 -11 27 -20 38 -20 15 0 18 -5 15 -25 -3 -13 -1
-22 3 -19 5 3 9 11 9 19 0 24 16 25 95 5 43 -11 106 -20 141 -20 34 0 64 -4
66 -9 3 -9 225 19 303 39 23 6 35 -1 35 -19 0 -15 10 -20 48 -26 27 -3 60 -2
75 4 17 7 122 11 263 11 l234 0 67 -65 c36 -36 98 -90 138 -121 40 -30 76 -62
79 -71 7 -18 -5 -34 -84 -107 -30 -28 -107 -101 -170 -163 l-115 -113 427 0
c419 0 478 4 478 32 0 10 59 5 205 -18 94 -14 539 -20 629 -8 l46 7 0 5113 0
5114 -5120 0 -5120 0 0 -3131z m3958 1377 c-31 -13 -103 -58 -159 -100 -83
-62 -104 -74 -111 -62 -16 28 29 89 87 118 22 12 43 26 47 32 8 12 103 33 158
34 33 1 32 0 -22 -22z m-273 -1075 c-3 -6 -11 -11 -16 -11 -5 0 -4 6 3 14 14
16 24 13 13 -3z m-605 -338 c0 -10 -32 -43 -41 -43 -11 0 1 33 15 42 14 10 26
10 26 1z m4737 -169 c-3 -3 -12 -4 -19 -1 -8 3 -5 6 6 6 11 1 17 -2 13 -5z
m-170 -20 c-3 -3 -12 -4 -19 -1 -8 3 -5 6 6 6 11 1 17 -2 13 -5z m-54 -21 c-7
-2 -21 -2 -30 0 -10 3 -4 5 12 5 17 0 24 -2 18 -5z m-74 -18 c-9 -9 -79 -35
-79 -30 0 3 15 12 33 20 32 14 55 19 46 10z m-119 -54 c0 -5 -10 -13 -22 -17
-13 -3 -36 -16 -51 -26 -16 -11 -31 -18 -34 -15 -2 3 19 19 49 36 60 35 58 34
58 22z m825 -11 c3 -5 2 -10 -4 -10 -5 0 -13 5 -16 10 -3 6 -2 10 4 10 5 0 13
-4 16 -10z m49 -39 c-2 -3 -12 3 -22 13 -16 17 -16 18 5 5 12 -7 20 -15 17
-18z m-4276 -72 c21 -7 35 -22 46 -49 20 -50 12 -86 -26 -121 -63 -60 -164
-27 -175 57 -7 54 9 81 60 105 49 22 54 22 95 8z m1122 -1199 c0 -5 -5 -10
-11 -10 -5 0 -7 5 -4 10 3 6 8 10 11 10 2 0 4 -4 4 -10z m10 -152 c0 -49 -5
-47 -13 5 -3 20 -2 37 4 37 5 0 9 -19 9 -42z m-30 -28 c0 -5 -4 -10 -10 -10
-5 0 -10 5 -10 10 0 6 5 10 10 10 6 0 10 -4 10 -10z m-4191 -109 c45 -29 91
-85 102 -126 14 -50 8 -158 -11 -180 -13 -16 -15 -16 -27 1 -7 10 -13 35 -13
56 0 67 -57 167 -112 196 -18 10 -24 22 -24 48 0 33 1 34 30 28 17 -4 42 -14
55 -23z m4197 -59 c-12 -11 -15 5 -8 44 l7 39 3 -39 c2 -21 1 -41 -2 -44z
m1672 -24 c18 -30 62 -157 62 -179 0 -5 -9 -18 -20 -29 -16 -16 -25 -18 -40
-10 -42 23 -96 177 -82 233 12 47 46 40 80 -15z m-6352 -173 c-2 -7 9 -45 25
-85 16 -40 29 -73 29 -74 0 -1 -9 -2 -21 -2 -30 0 -61 51 -67 107 -5 58 2 81
23 73 9 -4 14 -12 11 -19z m6136 -498 c-6 -12 -13 -31 -16 -41 -4 -10 -9 -16
-12 -13 -3 3 2 27 12 53 10 26 20 42 22 35 2 -7 0 -23 -6 -34z m-62 -122 c0
-8 -7 -15 -16 -15 -14 0 -14 3 -4 15 7 8 14 15 16 15 2 0 4 -7 4 -15z m-186
-117 c-9 -33 -12 -34 -29 -12 -21 27 -18 34 11 34 22 0 24 -3 18 -22z m3056
-333 c-13 -34 -16 -32 -14 13 2 54 4 60 14 34 6 -13 6 -32 0 -47z m-3729 -21
c41 -9 78 -20 83 -25 12 -11 -27 -25 -108 -40 -52 -10 -68 -10 -81 1 -20 17
-19 57 3 69 22 13 18 14 103 -5z m-2511 -1084 c0 -18 -257 -117 -269 -104 -3
4 -1 8 4 10 6 2 58 28 117 58 68 34 115 52 128 49 11 -3 20 -9 20 -13z m6141
-2001 c4 -8 10 -22 13 -31 8 -27 21 -21 31 14 6 18 18 34 28 36 15 3 17 -5 17
-58 0 -52 -3 -61 -15 -56 -9 3 -25 0 -35 -6 -16 -10 -22 -9 -33 6 -13 17 -14
17 -20 2 -12 -30 -27 -7 -27 39 0 74 -36 66 -42 -10 -4 -55 -32 -55 -36 0 -2
22 -10 47 -18 56 -21 24 -6 30 65 26 43 -2 67 -8 72 -18z m-5882 -445 c23 -7
-17 -43 -56 -50 -27 -5 -39 -2 -59 17 l-24 23 27 12 c25 10 75 9 112 -2z"/>
<path d="M5081 5064 c0 -11 3 -14 6 -6 3 7 2 16 -1 19 -3 4 -6 -2 -5 -13z"/>
<path d="M9860 4820 c-9 -6 -10 -10 -3 -10 6 0 15 5 18 10 8 12 4 12 -15 0z"/>
<path d="M5588 4781 c11 -19 19 -26 24 -18 4 6 2 15 -5 19 -7 4 -7 8 -2 8 11
0 -15 20 -27 20 -4 0 1 -13 10 -29z"/>
<path d="M5690 4637 c0 -9 -7 -17 -15 -17 -19 0 -20 -28 -2 -49 8 -9 22 -38
32 -66 21 -57 116 -225 127 -225 13 0 9 32 -6 49 -7 9 -26 41 -42 71 -15 30
-46 86 -67 124 -35 61 -38 71 -26 92 7 13 9 27 6 31 -4 3 -7 -1 -7 -10z"/>
<path d="M5859 4233 c11 -21 28 -47 38 -58 11 -11 23 -29 27 -40 6 -14 10 -16
13 -7 3 8 -4 27 -16 43 -11 15 -21 32 -21 36 0 9 -48 63 -56 63 -2 0 4 -17 15
-37z"/>
<path d="M5960 4096 c0 -9 5 -16 10 -16 6 0 10 4 10 9 0 6 -4 13 -10 16 -5 3
-10 -1 -10 -9z"/>
<path d="M5991 4075 c1 -19 18 -51 18 -35 0 8 -4 22 -9 30 -5 8 -9 11 -9 5z"/>
<path d="M6020 4031 c0 -5 5 -13 10 -16 6 -3 10 -2 10 4 0 5 -4 13 -10 16 -5
3 -10 2 -10 -4z"/>
<path d="M6045 3990 c3 -5 8 -10 11 -10 2 0 4 5 4 10 0 6 -5 10 -11 10 -5 0
-7 -4 -4 -10z"/>
<path d="M6305 2950 c-3 -5 -2 -10 4 -10 5 0 13 5 16 10 3 6 2 10 -4 10 -5 0
-13 -4 -16 -10z"/>
<path d="M4261 2916 c2 -2 15 -9 29 -15 24 -11 24 -11 6 3 -16 13 -49 24 -35
12z"/>
<path d="M6178 2863 c-30 -36 -30 -47 0 -19 18 17 32 31 32 33 0 9 -19 1 -32
-14z"/>
<path d="M5975 2604 c-19 -16 -19 -16 5 -9 31 9 50 25 30 25 -8 0 -24 -8 -35
-16z"/>
<path d="M5795 2480 c-3 -6 1 -7 9 -4 18 7 21 14 7 14 -6 0 -13 -4 -16 -10z"/>
<path d="M5760 2445 c-7 -9 -11 -18 -8 -20 3 -3 11 1 18 10 7 9 11 18 8 20 -3
3 -11 -1 -18 -10z"/>
<path d="M7588 2392 c5 -72 -7 -112 -33 -112 -7 0 -17 -9 -20 -21 -5 -15 -10
-18 -18 -10 -17 17 -55 13 -77 -9 -11 -11 -27 -20 -35 -20 -7 0 -18 -8 -23
-17 -9 -16 -16 -16 -103 1 -52 10 -124 27 -161 38 -107 32 -102 16 12 -42 58
-29 135 -70 171 -91 l66 -38 148 9 c82 6 151 8 153 5 3 -2 14 0 24 6 19 10 20
19 16 102 -3 71 -10 104 -29 147 -26 55 -74 120 -89 120 -4 0 -5 -31 -2 -68z"/>
<path d="M5715 2380 c-9 -18 -14 -34 -11 -37 2 -3 12 9 21 27 9 18 14 34 11
37 -2 3 -12 -9 -21 -27z"/>
<path d="M5645 2180 c-3 -5 -1 -10 4 -10 6 0 11 5 11 10 0 6 -2 10 -4 10 -3 0
-8 -4 -11 -10z"/>
<path d="M5733 2163 c-8 -3 -13 -21 -13 -44 0 -21 -4 -39 -10 -39 -5 0 -10 -7
-10 -15 0 -8 -4 -15 -10 -15 -5 0 -10 -18 -10 -40 0 -22 5 -40 10 -40 6 0 10
6 10 14 0 9 7 12 20 9 16 -4 19 -2 14 11 -4 11 -1 16 10 16 27 0 87 33 82 46
-3 7 2 15 10 18 8 3 14 17 13 33 -1 17 -3 21 -6 11 -6 -24 -18 -23 -40 5 -19
24 -49 37 -70 30z"/>
<path d="M5637 2133 c-11 -10 -8 -43 3 -43 6 0 10 11 10 25 0 26 -2 29 -13 18z"/>
<path d="M5512 2077 c-16 -20 -22 -49 -24 -130 -1 -62 2 -81 16 -95 16 -16 18
-16 35 7 14 18 19 43 20 98 1 41 -2 85 -5 98 -7 28 -28 39 -42 22z"/>
<path d="M4148 2068 c-11 -32 39 -115 57 -96 11 10 -5 64 -24 87 -21 24 -28
26 -33 9z"/>
<path d="M5840 2070 c0 -5 5 -10 11 -10 5 0 7 5 4 10 -3 6 -8 10 -11 10 -2 0
-4 -4 -4 -10z"/>
<path d="M6655 2032 c-17 -12 -54 -103 -85 -207 -16 -55 -43 -145 -59 -200
-16 -55 -37 -139 -47 -186 l-18 -85 57 -180 c31 -99 57 -184 57 -189 0 -5 14
-54 31 -108 38 -119 36 -123 -72 -143 -300 -56 -484 -64 -624 -28 -94 24 -231
93 -285 143 -76 71 -120 47 -120 -67 0 -113 70 -102 -638 -103 -339 -1 -628
-4 -642 -8 -16 -4 -25 -14 -25 -26 0 -19 10 -20 275 -22 151 -2 373 -3 493 -3
143 0 216 -3 212 -10 -3 -6 -20 -10 -36 -10 -18 0 -28 -4 -24 -10 3 -6 -4 -10
-18 -10 -35 0 -85 -28 -92 -51 -7 -20 -8 -20 -26 -3 -31 28 -32 10 -4 -50 43
-91 137 -156 277 -192 51 -14 93 -16 223 -11 88 4 176 11 195 17 60 17 131 13
225 -14 222 -64 479 -91 619 -67 106 19 236 87 331 175 68 63 82 72 97 62 14
-8 21 -8 27 3 5 8 16 11 28 7 20 -6 107 26 118 43 3 5 -1 12 -7 15 -7 4 -3 4
9 2 32 -6 103 47 103 77 0 13 5 28 12 35 9 9 9 12 0 12 -7 0 -12 -4 -12 -10 0
-5 -9 -10 -19 -10 -11 0 -23 -5 -26 -10 -8 -13 -85 -3 -129 15 -24 10 -36 10
-60 0 -95 -40 -115 -45 -166 -44 -50 2 -127 20 -154 36 -6 4 -26 6 -46 4 -44
-3 -93 15 -88 32 3 6 40 21 84 32 78 20 79 20 78 52 -1 17 -22 96 -47 175 -25
78 -51 163 -57 188 -7 25 -28 91 -47 148 l-35 102 33 128 c17 70 44 165 59
212 15 47 37 119 50 160 12 41 28 94 36 118 8 23 14 49 14 57 0 16 -18 20 -35
7z m-550 -1420 c11 -4 21 -14 21 -24 1 -15 -3 -15 -44 -3 -61 19 -77 35 -31
34 18 -1 43 -4 54 -7z m72 -58 c-3 -3 -12 -4 -19 -1 -8 3 -5 6 6 6 11 1 17 -2
13 -5z m406 -81 c-7 -2 -19 -2 -25 0 -7 3 -2 5 12 5 14 0 19 -2 13 -5z"/>
<path d="M8803 2023 c9 -2 23 -2 30 0 6 3 -1 5 -18 5 -16 0 -22 -2 -12 -5z"/>
<path d="M2250 1959 c-24 -87 11 -117 44 -37 21 51 17 78 -13 78 -15 0 -23
-10 -31 -41z"/>
<path d="M3260 1985 c19 -23 106 -85 119 -85 20 0 12 28 -14 49 -14 11 -39 23
-55 26 -17 4 -30 11 -30 16 0 5 -7 9 -16 9 -14 0 -14 -3 -4 -15z"/>
<path d="M2795 1960 c-76 -11 -166 -44 -227 -84 -47 -30 -59 -48 -18 -26 30
16 121 42 127 37 2 -3 -27 -22 -64 -43 -87 -48 -192 -152 -225 -224 -38 -81
-60 -172 -67 -285 -5 -90 -7 -97 -18 -70 -6 17 -15 48 -20 70 l-8 40 -3 -55
c-10 -162 88 -345 239 -445 347 -231 839 -90 968 278 99 285 2 581 -239 728
-108 66 -300 100 -445 79z m233 -375 c53 -23 77 -49 103 -112 l22 -55 18 23
19 24 1 -30 c6 -95 -16 -151 -87 -233 -48 -55 -135 -112 -169 -111 -17 0 -13
6 18 34 l38 33 -61 -19 c-77 -24 -134 -24 -185 0 -68 31 -105 86 -105 154 0
72 80 189 170 252 78 54 151 67 218 40z"/>
<path d="M7505 1959 c-82 -8 -165 -31 -200 -55 -19 -14 -19 -14 0 -14 11 1 40
5 65 10 49 9 79 -3 33 -14 -69 -18 -176 -82 -233 -139 -130 -132 -181 -301
-158 -517 l7 -65 -27 55 c-25 50 -27 53 -30 27 -9 -74 58 -212 147 -302 140
-141 334 -197 577 -165 166 21 254 42 254 59 0 18 -124 423 -134 440 -4 6 -13
8 -21 4 -10 -3 -15 -20 -15 -54 0 -36 -5 -54 -21 -70 -24 -24 -96 -58 -123
-59 -18 0 -18 2 4 25 13 14 22 27 19 29 -2 2 -27 0 -54 -5 -89 -17 -193 20
-229 82 -54 91 36 264 174 334 102 52 178 51 248 -2 33 -24 52 -24 52 3 0 17
89 322 101 345 14 28 -12 39 -117 49 -113 11 -204 11 -319 -1z"/>
<path d="M1575 1945 c-92 -15 -138 -30 -178 -58 -37 -25 -29 -31 23 -17 23 6
44 10 46 7 2 -2 -22 -20 -54 -41 -95 -61 -137 -140 -150 -281 l-8 -80 -15 49
c-20 64 -29 36 -18 -56 19 -155 113 -222 350 -248 139 -15 145 -17 168 -41 13
-14 27 -20 40 -16 28 7 34 -18 16 -58 -14 -29 -50 -55 -76 -55 -5 0 -7 11 -3
27 6 23 5 25 -12 18 -30 -12 -244 -18 -301 -8 -64 12 -85 3 -59 -26 18 -20 18
-23 -5 -111 -21 -84 -25 -91 -53 -98 -34 -9 -56 -36 -41 -51 30 -28 499 -53
607 -32 230 45 373 239 337 461 -13 86 -41 141 -95 189 -52 45 -111 64 -269
85 -153 20 -175 31 -175 86 0 48 87 62 293 48 81 -6 150 -9 152 -6 6 6 68 231
69 253 1 24 -54 38 -229 60 -144 18 -252 18 -360 0z"/>
<path d="M3640 1945 c0 -9 6 -18 13 -20 9 -4 11 -119 9 -538 -1 -292 -2 -538
-2 -546 0 -9 -7 -11 -21 -8 -25 7 -46 -37 -28 -59 16 -19 379 -21 379 -1 0 6
1 135 1 285 1 149 4 272 8 272 3 -1 67 -128 142 -283 l135 -282 260 0 259 0 3
598 2 597 -175 0 c-96 0 -175 -4 -175 -9 0 -5 7 -14 16 -21 13 -12 15 -48 13
-269 -1 -141 -5 -266 -10 -278 -15 -40 -37 -26 -73 45 -18 37 -90 171 -158
297 l-125 230 -237 3 c-208 2 -236 0 -236 -13z"/>
<path d="M5020 1946 c0 -8 5 -16 11 -18 11 -4 14 -1072 3 -1090 -3 -5 -12 -7
-20 -4 -18 7 -39 -41 -25 -58 6 -8 75 -11 223 -10 l213 1 3 596 2 597 -205 0
c-170 0 -205 -2 -205 -14z"/>
<path d="M5640 1949 c0 -5 5 -7 10 -4 6 3 10 8 10 11 0 2 -4 4 -10 4 -5 0 -10
-5 -10 -11z"/>
<path d="M6022 1945 c-72 -17 -192 -71 -192 -87 0 -5 6 -8 14 -5 34 13 98 28
103 24 2 -3 -27 -22 -64 -43 -121 -67 -215 -185 -258 -324 -10 -30 -20 -107
-24 -170 l-6 -115 -14 45 c-23 75 -25 77 -29 20 -7 -115 61 -263 168 -364 170
-160 353 -191 740 -123 75 13 75 13 74 44 -1 17 -13 66 -27 109 -14 44 -42
133 -62 199 -20 66 -40 124 -45 128 -12 14 -41 -24 -40 -52 1 -14 2 -34 1 -43
-1 -22 -57 -64 -96 -74 l-30 -7 30 33 c24 26 26 32 10 26 -49 -18 -122 -28
-162 -22 -179 24 -218 183 -82 331 114 123 266 157 359 78 17 -14 34 -23 37
-19 3 3 17 45 29 93 13 49 39 136 58 196 l34 107 -21 12 c-34 19 -425 21 -505
3z"/>
<path d="M8163 1953 c-46 -2 -83 -7 -83 -12 0 -4 8 -15 18 -24 16 -14 17 -52
14 -547 l-2 -531 -31 -6 c-25 -5 -30 -10 -27 -32 l3 -26 190 -3 c240 -4 390 9
478 41 243 88 397 312 397 576 0 262 -152 466 -409 550 -58 19 -85 21 -265 19
-111 -1 -238 -4 -283 -5z m488 -374 c49 -17 94 -53 109 -88 15 -37 23 -39 37
-8 11 22 11 22 23 -8 43 -110 -103 -318 -261 -370 -67 -23 -81 -14 -34 19 l40
27 -50 -6 c-27 -4 -57 -8 -65 -11 -38 -10 -41 6 -38 212 l3 199 45 23 c50 25
134 30 191 11z"/>
<path d="M3618 1553 c1 -181 3 -409 5 -508 1 -99 3 48 5 328 1 279 -1 507 -5
507 -5 0 -7 -147 -5 -327z"/>
<path d="M4433 1720 c0 -25 2 -35 4 -22 2 12 2 32 0 45 -2 12 -4 2 -4 -23z"/>
</g>
</svg>
